<svg width="17" height="14" viewBox="0 0 17 14" fill="none" xmlns="http://www.w3.org/2000/svg">
<path d="M16.2714 11.4862L10.0253 0.855438C9.8692 0.594988 9.64637 0.379036 9.37889 0.228986C9.11141 0.0789368 8.80856 0 8.50036 0C8.19216 0 7.88931 0.0789368 7.62183 0.228986C7.35434 0.379036 7.13152 0.594988 6.97544 0.855438L0.729326 11.4862C0.579145 11.7381 0.5 12.0247 0.5 12.3164C0.5 12.6082 0.579145 12.8947 0.729326 13.1466C0.883411 13.4086 1.10586 13.6258 1.37384 13.7757C1.64182 13.9257 1.94568 14.003 2.25425 13.9999H14.7465C15.0548 14.0028 15.3584 13.9253 15.6261 13.7754C15.8938 13.6254 16.116 13.4084 16.27 13.1466C16.4204 12.8948 16.4997 12.6084 16.5 12.3166C16.5003 12.0249 16.4214 11.7383 16.2714 11.4862ZM7.92896 5.59999C7.92896 5.45147 7.98916 5.30903 8.09632 5.20402C8.20347 5.099 8.34881 5.04 8.50036 5.04C8.6519 5.04 8.79724 5.099 8.9044 5.20402C9.01156 5.30903 9.07176 5.45147 9.07176 5.59999V8.39996C9.07176 8.54848 9.01156 8.69092 8.9044 8.79594C8.79724 8.90096 8.6519 8.95996 8.50036 8.95996C8.34881 8.95996 8.20347 8.90096 8.09632 8.79594C7.98916 8.69092 7.92896 8.54848 7.92896 8.39996V5.59999ZM8.50036 11.7599C8.33084 11.7599 8.16513 11.7107 8.02418 11.6184C7.88323 11.5261 7.77337 11.3949 7.7085 11.2414C7.64363 11.0879 7.62666 10.919 7.65973 10.7561C7.6928 10.5931 7.77443 10.4435 7.8943 10.326C8.01416 10.2085 8.16688 10.1285 8.33315 10.0961C8.49941 10.0637 8.67174 10.0803 8.82835 10.1439C8.98497 10.2075 9.11883 10.3151 9.21301 10.4533C9.30719 10.5914 9.35746 10.7538 9.35746 10.9199C9.35746 11.1427 9.26715 11.3564 9.10642 11.5139C8.94568 11.6714 8.72767 11.7599 8.50036 11.7599Z" fill="#FFAA29"/>
</svg>
