<svg width="24" height="24" viewBox="0 0 24 24" fill="none" xmlns="http://www.w3.org/2000/svg">
<path d="M5.34901 15.785C5.27268 15.8537 5.18288 15.9074 5.08476 15.943C4.98663 15.9786 4.8821 15.9955 4.77712 15.9927C4.67214 15.9899 4.56877 15.9674 4.47292 15.9265C4.37706 15.8857 4.2906 15.8272 4.21847 15.7546C4.14634 15.6819 4.08995 15.5964 4.05252 15.503C4.01509 15.4096 3.99735 15.31 4.00032 15.2101C4.00329 15.1101 4.02691 15.0117 4.06983 14.9205C4.11274 14.8292 4.17412 14.7469 4.25045 14.6782L11.4462 8.20807C11.5947 8.07445 11.7912 8 11.9955 8C12.1998 8 12.3963 8.07445 12.5448 8.20807L19.7414 14.6782C19.8194 14.7465 19.8824 14.8288 19.9267 14.9203C19.971 15.0119 19.9957 15.111 19.9995 15.2118C20.0033 15.3126 19.9859 15.413 19.9486 15.5074C19.9112 15.6018 19.8545 15.6881 19.7818 15.7614C19.7091 15.8347 19.6218 15.8936 19.525 15.9345C19.4282 15.9754 19.3238 15.9976 19.2179 15.9998C19.112 16.002 19.0067 15.9842 18.9081 15.9473C18.8095 15.9104 18.7196 15.8552 18.6436 15.785L11.9955 9.8081L5.34901 15.785Z" fill="#1B1D1F"/>
</svg>
