<svg width="42" height="42" viewBox="0 0 42 42" fill="none" xmlns="http://www.w3.org/2000/svg">
<path d="M0 21C0 32.598 9.40202 42 21 42C32.598 42 42 32.598 42 21C42 9.40202 32.598 0 21 0C9.40202 0 0 9.40202 0 21Z" fill="white"/>
<path d="M17.215 14.349C17.1463 14.2727 17.0926 14.1829 17.057 14.0848C17.0214 13.9866 17.0045 13.8821 17.0073 13.7771C17.0101 13.6721 17.0326 13.5688 17.0735 13.4729C17.1143 13.3771 17.1728 13.2906 17.2454 13.2185C17.3181 13.1463 17.4036 13.0899 17.497 13.0525C17.5904 13.0151 17.69 12.9973 17.7899 13.0003C17.8899 13.0033 17.9883 13.0269 18.0795 13.0698C18.1708 13.1127 18.2531 13.1741 18.3218 13.2505L24.7919 20.4462C24.9256 20.5947 25 20.7912 25 20.9955C25 21.1998 24.9256 21.3963 24.7919 21.5448L18.3218 28.7414C18.2535 28.8194 18.1712 28.8824 18.0797 28.9267C17.9881 28.971 17.889 28.9957 17.7882 28.9995C17.6874 29.0033 17.587 28.9859 17.4926 28.9486C17.3983 28.9112 17.3119 28.8545 17.2386 28.7818C17.1653 28.7091 17.1064 28.6218 17.0655 28.525C17.0246 28.4282 17.0024 28.3238 17.0002 28.2179C16.998 28.112 17.0158 28.0067 17.0527 27.9081C17.0896 27.8095 17.1448 27.7196 17.215 27.6436L23.1919 20.9955L17.215 14.349Z" fill="#1B1D1F"/>
</svg>
