<svg width="42" height="42" viewBox="0 0 42 42" fill="none" xmlns="http://www.w3.org/2000/svg">
<path d="M42 21C42 32.598 32.598 42 21 42C9.40202 42 0 32.598 0 21C0 9.40202 9.40202 0 21 0C32.598 0 42 9.40202 42 21Z" fill="white"/>
<path d="M24.785 14.349C24.8537 14.2727 24.9074 14.1829 24.943 14.0848C24.9786 13.9866 24.9955 13.8821 24.9927 13.7771C24.9899 13.6721 24.9674 13.5688 24.9265 13.4729C24.8857 13.3771 24.8272 13.2906 24.7546 13.2185C24.6819 13.1463 24.5964 13.0899 24.503 13.0525C24.4096 13.0151 24.31 12.9973 24.2101 13.0003C24.1101 13.0033 24.0117 13.0269 23.9205 13.0698C23.8292 13.1127 23.7469 13.1741 23.6782 13.2505L17.2081 20.4462C17.0744 20.5947 17 20.7912 17 20.9955C17 21.1998 17.0744 21.3963 17.2081 21.5448L23.6782 28.7414C23.7465 28.8194 23.8288 28.8824 23.9203 28.9267C24.0119 28.971 24.111 28.9957 24.2118 28.9995C24.3126 29.0033 24.413 28.9859 24.5074 28.9486C24.6018 28.9112 24.6881 28.8545 24.7614 28.7818C24.8347 28.7091 24.8936 28.6218 24.9345 28.525C24.9754 28.4282 24.9976 28.3238 24.9998 28.2179C25.002 28.112 24.9842 28.0067 24.9473 27.9081C24.9104 27.8095 24.8552 27.7196 24.785 27.6436L18.8081 20.9955L24.785 14.349Z" fill="#1B1D1F"/>
</svg>
