<svg width="42" height="42" viewBox="0 0 42 42" fill="none" xmlns="http://www.w3.org/2000/svg">
<g id="rechoice">
<path id="Vector" d="M23.0052 19.3379L22.7007 15.8519L26.8552 15.4879C25.5478 14.2289 23.8813 13.4077 22.0864 13.138C20.2915 12.8682 18.4572 13.1633 16.8375 13.9823C15.2178 14.8014 13.8928 16.1038 13.0462 17.7093C12.1996 19.3148 11.8732 21.1438 12.1122 22.943C12.3512 24.7422 13.1438 26.4226 14.3802 27.7513C15.6166 29.0801 17.2356 29.9915 19.0129 30.3593C20.7903 30.7271 22.6381 30.533 24.3003 29.8041C25.9625 29.0751 27.3568 27.8473 28.2902 26.2906L31.7937 27.1656C30.6535 29.5006 28.8003 31.4125 26.502 32.6249C24.2037 33.8374 21.5794 34.2876 19.0084 33.9105C16.4374 33.5334 14.0529 32.3485 12.1996 30.5271C10.3463 28.7057 9.1202 26.3421 8.69852 23.7781C8.27684 21.214 8.68143 18.5823 9.85381 16.2633C11.0262 13.9443 12.9056 12.0582 15.2204 10.8776C17.5352 9.69695 20.1655 9.28301 22.7311 9.69557C25.2966 10.1081 27.6645 11.3258 29.4925 13.1726L29.0637 8.26739L32.5497 7.96289L33.465 18.4226L23.0052 19.3379Z" fill="#1B1D1F"/>
</g>
</svg>
