<svg width="4" height="89" viewBox="0 0 4 89" fill="none" xmlns="http://www.w3.org/2000/svg">
<rect width="4" height="89" fill="#F5F5F5"/>
<g id="&#235;&#169;&#148;&#236;&#157;&#184;&#237;&#142;&#152;&#236;&#157;&#180;&#236;&#167;&#128;-&#237;&#148;&#140;&#235;&#160;&#136;&#236;&#157;&#180; &#236;&#139;&#156;&#234;&#176;&#132;" clip-path="url(#clip0_607_3950)">
<rect width="1536" height="5046" transform="translate(-578 -685)" fill="white"/>
<path id="Rectangle 726" d="M-578 -618H958V3892H-578V-618Z" fill="url(#paint0_linear_607_3950)"/>
<g id="Frame 171">
<g id="Frame 59">
<g id="Frame 58">
<g id="&#234;&#178;&#128;&#236;&#131;&#137;&#236;&#151;&#148;&#236;&#167;&#132;" clip-path="url(#clip1_607_3950)">
<g id="Frame 172">
<g id="&#234;&#178;&#128;&#236;&#131;&#137;&#236;&#151;&#148;&#236;&#167;&#132;_2">
<g id="Group 2">
<g id="Rectangle 716" filter="url(#filter0_d_607_3950)">
<path d="M-288.5 -188C-288.5 -199.046 -279.546 -208 -268.5 -208H649.5C660.546 -208 669.5 -199.046 669.5 -188V85H-288.5V-188Z" fill="#19297C"/>
</g>
</g>
</g>
<g id="Rectangle 716_2" filter="url(#filter1_d_607_3950)">
<path d="M-288.5 85H669.5V151C669.5 162.046 660.546 171 649.5 171H-268.5C-279.546 171 -288.5 162.046 -288.5 151V85Z" fill="#B1BEFF"/>
</g>
<g id="Frame 169">
<g id="Frame 168">
<g id="Frame 167">
<path id="Rectangle 751" d="M-143.75 -23.75H9.75V85C9.75 95.9076 0.907623 104.75 -10 104.75H-124C-134.908 104.75 -143.75 95.9076 -143.75 85V-23.75Z" fill="white" stroke="#9FA4A9" stroke-width="0.5"/>
<g id="Scroll Bar">
<path id="Line 25" d="M2 2L2 24" stroke="#464C52" stroke-width="3" stroke-linecap="round"/>
</g>
</g>
</g>
</g>
</g>
</g>
</g>
</g>
</g>
</g>
<defs>
<filter id="filter0_d_607_3950" x="-308.5" y="-213" width="998" height="333" filterUnits="userSpaceOnUse" color-interpolation-filters="sRGB">
<feFlood flood-opacity="0" result="BackgroundImageFix"/>
<feColorMatrix in="SourceAlpha" type="matrix" values="0 0 0 0 0 0 0 0 0 0 0 0 0 0 0 0 0 0 127 0" result="hardAlpha"/>
<feOffset dy="15"/>
<feGaussianBlur stdDeviation="10"/>
<feComposite in2="hardAlpha" operator="out"/>
<feColorMatrix type="matrix" values="0 0 0 0 0.105882 0 0 0 0 0.113725 0 0 0 0 0.121569 0 0 0 0.1 0"/>
<feBlend mode="normal" in2="BackgroundImageFix" result="effect1_dropShadow_607_3950"/>
<feBlend mode="normal" in="SourceGraphic" in2="effect1_dropShadow_607_3950" result="shape"/>
</filter>
<filter id="filter1_d_607_3950" x="-308.5" y="80" width="998" height="126" filterUnits="userSpaceOnUse" color-interpolation-filters="sRGB">
<feFlood flood-opacity="0" result="BackgroundImageFix"/>
<feColorMatrix in="SourceAlpha" type="matrix" values="0 0 0 0 0 0 0 0 0 0 0 0 0 0 0 0 0 0 127 0" result="hardAlpha"/>
<feOffset dy="15"/>
<feGaussianBlur stdDeviation="10"/>
<feComposite in2="hardAlpha" operator="out"/>
<feColorMatrix type="matrix" values="0 0 0 0 0.105882 0 0 0 0 0.113725 0 0 0 0 0.121569 0 0 0 0.1 0"/>
<feBlend mode="normal" in2="BackgroundImageFix" result="effect1_dropShadow_607_3950"/>
<feBlend mode="normal" in="SourceGraphic" in2="effect1_dropShadow_607_3950" result="shape"/>
</filter>
<linearGradient id="paint0_linear_607_3950" x1="190" y1="-618" x2="190" y2="3892" gradientUnits="userSpaceOnUse">
<stop stop-color="#A0DDFF" stop-opacity="0.4"/>
<stop offset="0.179" stop-color="white"/>
</linearGradient>
<clipPath id="clip0_607_3950">
<rect width="1536" height="5046" fill="white" transform="translate(-578 -685)"/>
</clipPath>
<clipPath id="clip1_607_3950">
<rect width="969" height="889" fill="white" transform="translate(-294.5 -616)"/>
</clipPath>
</defs>
</svg>
