<svg width="74" height="74" viewBox="0 0 74 74" fill="none" xmlns="http://www.w3.org/2000/svg">
<g id="ph:gender-intersex-fill">
<path id="Vector" d="M42.7552 32.8722C42.89 34.5237 42.5146 36.1767 41.6799 37.608C40.8451 39.0393 39.5912 40.18 38.0874 40.8758C36.5837 41.5717 34.9025 41.7893 33.2712 41.4992C31.6398 41.2091 30.1368 40.4252 28.9652 39.2536C27.7935 38.082 27.0097 36.5789 26.7196 34.9476C26.4295 33.3162 26.647 31.6351 27.3429 30.1313C28.0388 28.6276 29.1794 27.3736 30.6107 26.5389C32.042 25.7041 33.6951 25.3288 35.3466 25.4635C37.2593 25.6196 39.0544 26.4503 40.4114 27.8073C41.7685 29.1643 42.5992 30.9594 42.7552 32.8722ZM62.4375 11.5625V62.4375C62.4375 63.6641 61.9502 64.8405 61.0829 65.7079C60.2155 66.5752 59.0391 67.0625 57.8125 67.0625H16.1875C14.9609 67.0625 13.7845 66.5752 12.9171 65.7079C12.0498 64.8405 11.5625 63.6641 11.5625 62.4375V11.5625C11.5625 10.3359 12.0498 9.15949 12.9171 8.29213C13.7845 7.42478 14.9609 6.9375 16.1875 6.9375H57.8125C59.0391 6.9375 60.2155 7.42478 61.0829 8.29213C61.9502 9.15949 62.4375 10.3359 62.4375 11.5625ZM54.3438 16.1875C54.3438 15.5742 54.1001 14.986 53.6664 14.5523C53.2328 14.1186 52.6446 13.875 52.0312 13.875H44.0155C43.4178 13.8655 42.8386 14.0831 42.395 14.4838C41.9513 14.8845 41.6761 15.4386 41.625 16.0343C41.604 16.3506 41.6483 16.6679 41.755 16.9664C41.8618 17.2649 42.0288 17.5382 42.2457 17.7694C42.4625 18.0007 42.7246 18.1849 43.0157 18.3105C43.3067 18.4362 43.6205 18.5007 43.9375 18.5H46.4495L41.8909 23.0585C40.3298 21.9807 38.5474 21.2658 36.6742 20.9661C34.801 20.6665 32.8845 20.7896 31.065 21.3265C29.2456 21.8634 27.5693 22.8006 26.1589 24.0692C24.7486 25.3379 23.6399 26.906 22.914 28.6587C22.1882 30.4113 21.8636 32.3042 21.964 34.1985C22.0644 36.0929 22.5873 37.9408 23.4944 39.6069C24.4015 41.2729 25.6698 42.715 27.2064 43.8275C28.743 44.9399 30.509 45.6945 32.375 46.0361V50.875H26.6718C26.074 50.8655 25.4949 51.0831 25.0512 51.4838C24.6076 51.8845 24.3324 52.4386 24.2812 53.0343C24.2602 53.3506 24.3045 53.6679 24.4113 53.9664C24.5181 54.2649 24.6851 54.5382 24.9019 54.7694C25.1188 55.0007 25.3809 55.1849 25.6719 55.3105C25.963 55.4362 26.2767 55.5007 26.5938 55.5H32.375V60.047C32.3676 60.6436 32.5861 61.2209 32.9866 61.6632C33.387 62.1054 33.9399 62.38 34.5343 62.4317C34.8506 62.4527 35.1679 62.4085 35.4664 62.3017C35.7649 62.1949 36.0382 62.0279 36.2694 61.811C36.5007 61.5942 36.6849 61.3321 36.8105 61.041C36.9362 60.75 37.0007 60.4362 37 60.1192V55.5H42.7032C43.3 55.508 43.8777 55.2898 44.3201 54.8892C44.7625 54.4886 45.0369 53.9354 45.088 53.3407C45.109 53.0244 45.0647 52.7071 44.9579 52.4086C44.8512 52.1101 44.6842 51.8368 44.4673 51.6056C44.2504 51.3743 43.9883 51.1901 43.6973 51.0645C43.4063 50.9388 43.0925 50.8743 42.7755 50.875H37V46.0361C39.084 45.6496 41.0383 44.7483 42.6854 43.4144C44.3325 42.0804 45.6201 40.3559 46.4311 38.3977C47.2422 36.4395 47.5511 34.3097 47.3296 32.2018C47.1082 30.0939 46.3634 28.0747 45.1631 26.3278L49.7188 21.7693V24.2032C49.7099 24.8008 49.9277 25.3796 50.3283 25.8231C50.7289 26.2666 51.2826 26.5419 51.878 26.5938C52.1944 26.6148 52.5116 26.5705 52.8101 26.4637C53.1086 26.3569 53.382 26.1899 53.6132 25.9731C53.8444 25.7562 54.0286 25.4941 54.1543 25.2031C54.28 24.912 54.3444 24.5983 54.3438 24.2812V16.1875Z" fill="#5B6BBE"/>
</g>
</svg>
