<svg width="22" height="30" viewBox="0 0 22 30" xmlns="http://www.w3.org/2000/svg">
<path d="M0.75 29.0624V29.0618V3.74991C0.75 2.94892 1.06129 2.18403 1.61019 1.62267C2.15854 1.06187 2.89862 0.75 3.66667 0.75H18.3333C19.1014 0.75 19.8415 1.06187 20.3898 1.62267C20.9387 2.18404 21.25 2.94892 21.25 3.74991V29.0618V29.0624C21.25 29.0981 21.2409 29.1323 21.2247 29.1615C21.2085 29.1906 21.1863 29.2128 21.162 29.2276C21.1378 29.2423 21.1116 29.2495 21.0859 29.25C21.0602 29.2504 21.034 29.2441 21.0096 29.2304L21.0088 29.23L11.3655 23.8489L11 23.645L10.6345 23.8489L0.991204 29.23L0.990427 29.2304C0.966 29.2441 0.939758 29.2504 0.914062 29.25C0.888373 29.2495 0.862199 29.2423 0.838005 29.2276C0.81367 29.2128 0.791515 29.1906 0.775336 29.1615C0.759099 29.1323 0.749974 29.0981 0.75 29.0624Z" fill="current" stroke="#1B1D1F" stroke-width="1.5"/>
</svg>
