<svg width="42" height="42" viewBox="0 0 42 42" fill="none" xmlns="http://www.w3.org/2000/svg">
<g id="view">
<path id="Vector" d="M35.5973 21C35.5973 20.6946 35.4834 20.5036 34.7499 19.6113L35.5973 21ZM35.5973 21C35.5973 21.3054 35.4834 21.4964 34.7499 22.3887L35.5973 21ZM34.7498 22.3888C33.5297 23.8701 31.5848 25.9756 29.1806 27.7053C26.7704 29.4393 23.9623 30.75 20.9998 30.75C18.0374 30.75 15.2293 29.4393 12.8191 27.7053C10.4149 25.9757 8.47011 23.8703 7.24996 22.3889C6.51635 21.4965 6.40234 21.3054 6.40234 21C6.40234 20.6946 6.51635 20.5035 7.24996 19.6111C8.47011 18.1297 10.4149 16.0243 12.8191 14.2947C15.2293 12.5607 18.0374 11.25 20.9998 11.25C23.9623 11.25 26.7704 12.5607 29.1806 14.2947C31.5848 16.0244 33.5297 18.1299 34.7498 19.6112V22.3888Z" fill="#CACDD2" stroke="#26282B" stroke-width="1.5"/>
<path id="Vector_2" d="M21 26.25C23.8995 26.25 26.25 23.8995 26.25 21C26.25 18.1005 23.8995 15.75 21 15.75C18.1005 15.75 15.75 18.1005 15.75 21C15.75 23.8995 18.1005 26.25 21 26.25Z" fill="#26282B"/>
</g>
</svg>
