<svg width="25" height="24" viewBox="0 0 25 24" fill="none" xmlns="http://www.w3.org/2000/svg">
<path d="M19.151 8.21499C19.2273 8.14631 19.3171 8.09263 19.4152 8.05699C19.5134 8.02135 19.6179 8.00447 19.7229 8.00729C19.8279 8.01012 19.9312 8.03261 20.0271 8.07347C20.1229 8.11433 20.2094 8.17276 20.2815 8.24543C20.3537 8.31811 20.4101 8.40359 20.4475 8.49701C20.4849 8.59044 20.5026 8.68996 20.4997 8.78991C20.4967 8.88985 20.4731 8.98826 20.4302 9.07952C20.3873 9.17078 20.3259 9.25309 20.2495 9.32177L13.0538 15.7919C12.9053 15.9256 12.7088 16 12.5045 16C12.3002 16 12.1037 15.9256 11.9552 15.7919L4.75864 9.32177C4.68064 9.25355 4.61765 9.17125 4.57333 9.07966C4.52902 8.98806 4.50426 8.889 4.5005 8.78822C4.49674 8.68745 4.51405 8.58696 4.55143 8.4926C4.5888 8.39825 4.6455 8.3119 4.71822 8.23859C4.79094 8.16527 4.87824 8.10644 4.97504 8.06551C5.07185 8.02458 5.17623 8.00238 5.28212 8.00018C5.38802 7.99798 5.49331 8.01584 5.5919 8.05272C5.69048 8.08959 5.78039 8.14475 5.85639 8.21499L12.5045 14.1919L19.151 8.21499Z" fill="#1B1D1F"/>
</svg>
