<svg width="24" height="25" viewBox="0 0 24 25" fill="none" xmlns="http://www.w3.org/2000/svg">
<g id="good">
<path id="Vector" d="M18.9974 12.7539C19.0057 12.8484 18.994 12.9435 18.9629 13.0333C18.9318 13.1231 18.8821 13.2056 18.8168 13.2755C18.7515 13.3454 18.6722 13.4012 18.5838 13.4394C18.4954 13.4776 18.3998 13.4973 18.3032 13.4973H16.9724C16.7876 13.4973 16.6103 13.4252 16.4796 13.2969C16.3489 13.1686 16.2755 12.9946 16.2755 12.8131V6.31312C16.2755 6.13165 16.3489 5.95762 16.4796 5.82931C16.6103 5.70099 16.7876 5.62891 16.9724 5.62891H17.7272C17.9016 5.62886 18.0698 5.69304 18.1983 5.80876C18.3269 5.92448 18.4066 6.08333 18.4217 6.25393L18.9974 12.7539ZM14.1847 13.0269C14.1847 13.3129 14.0035 13.5688 13.7404 13.6906C13.1657 13.9568 12.1869 14.4915 11.7454 15.2144C11.1763 16.1463 11.069 17.8298 11.0516 18.2153C11.0491 18.2694 11.0505 18.3234 11.0432 18.3768C10.9488 19.0449 9.63539 18.2646 9.13185 17.4394C8.8583 16.9919 8.82346 16.4039 8.85203 15.9444C8.88304 15.4531 9.02975 14.9786 9.17367 14.5072L9.48032 13.5025L5.69698 13.5025C5.5893 13.5025 5.48309 13.478 5.38667 13.4309C5.29025 13.3839 5.20625 13.3155 5.14126 13.2312C5.07627 13.1469 5.03205 13.049 5.01209 12.9451C4.99212 12.8412 4.99694 12.7342 5.02618 12.6325L6.89746 6.12701C6.93877 5.98354 7.02669 5.85723 7.14784 5.76732C7.26899 5.6774 7.41674 5.6288 7.56862 5.62891L13.4877 5.62891C13.6726 5.62891 13.8498 5.70099 13.9805 5.82931C14.1112 5.95762 14.1847 6.13165 14.1847 6.31312L14.1847 13.0269Z" stroke="#9FA4A9" stroke-width="1.5" stroke-linecap="round" stroke-linejoin="round"/>
</g>
</svg>
