<svg width="17" height="12" viewBox="0 0 17 12" fill="none" xmlns="http://www.w3.org/2000/svg">
<path d="M0.850512 0.0300007H16.1509C16.3059 0.0304575 16.4577 0.0706396 16.5901 0.14622C16.7226 0.221801 16.8306 0.329918 16.9025 0.458935C16.9745 0.587952 17.0077 0.732985 16.9985 0.878418C16.9893 1.02385 16.9382 1.16418 16.8505 1.2843L9.2003 11.6768C8.88324 12.1077 8.11992 12.1077 7.80201 11.6768L0.151792 1.2843C0.0632406 1.16443 0.011312 1.02403 0.00164813 0.878355C-0.00801576 0.732679 0.0249547 0.587298 0.0969773 0.458008C0.169 0.328717 0.27732 0.220461 0.410169 0.145003C0.543018 0.0695457 0.695314 0.0297709 0.850512 0.0300007Z" fill="black"/>
</svg>
