<svg width="74" height="74" viewBox="0 0 74 74" fill="none" xmlns="http://www.w3.org/2000/svg">
<g id="gridicons:customize">
<path id="Vector" d="M6.16797 18.4974C6.16797 13.857 8.57297 9.00073 12.3346 6.16406C12.3346 8.76948 14.4621 12.3307 18.5013 12.3307C20.9546 12.3307 23.3073 13.3053 25.042 15.04C26.7768 16.7747 27.7513 19.1275 27.7513 21.5807C27.7513 22.7709 27.5077 23.8994 27.0976 24.9446C29.3847 26.7598 31.637 28.6183 33.8532 30.5193L27.4399 36.9326C25.5397 34.7158 23.6811 32.4635 21.8652 30.1771C20.7949 30.6042 19.6537 30.8259 18.5013 30.8307C11.6871 30.8307 6.16797 25.3116 6.16797 18.4974ZM43.6366 39.6121L47.7714 35.4773C49.6861 36.4631 51.8061 36.9838 53.9596 36.9974C57.6395 36.9974 61.1687 35.5356 63.7707 32.9335C66.3728 30.3314 67.8346 26.8023 67.8346 23.1224C67.8346 20.887 67.255 18.8026 66.3146 16.9341L55.5013 27.7474L49.3346 21.5807L60.1479 10.7675C58.2332 9.78174 56.1132 9.26098 53.9596 9.2474C50.2798 9.2474 46.7506 10.7092 44.1485 13.3113C41.5465 15.9134 40.0846 19.4425 40.0846 23.1224C40.0846 25.3578 40.6643 27.4421 41.6047 29.3106L9.2513 61.6641L15.418 67.8307L36.5326 46.7161C42.3397 52.6742 48.4934 58.2843 54.9617 63.5171L59.3555 67.0599L63.9805 62.4349L60.4377 58.0411C55.2049 51.5729 49.5948 45.4191 43.6366 39.6121Z" fill="#5B6BBE"/>
</g>
</svg>
