<svg width="24" height="25" viewBox="0 0 24 25" fill="none" xmlns="http://www.w3.org/2000/svg">
  <path d="M5.00261 12.5039C4.99426 12.4094 5.006 12.3143 5.03708 12.2245C5.06817 12.1347 5.11793 12.0522 5.1832 11.9823C5.24847 11.9124 5.32782 11.8566 5.41623 11.8184C5.50464 11.7802 5.60017 11.7605 5.69676 11.7605H7.02757C7.21241 11.7605 7.38968 11.8326 7.52038 11.9609C7.65108 12.0892 7.72451 12.2632 7.72451 12.4447V18.9447C7.72451 19.1262 7.65108 19.3002 7.52038 19.4285C7.38968 19.5568 7.21241 19.6289 7.02757 19.6289H6.27279C6.09835 19.6289 5.93024 19.5648 5.80166 19.4491C5.67308 19.3333 5.59337 19.1745 5.57828 19.0039L5.00261 12.5039ZM9.81533 12.2309C9.81533 11.9449 9.99654 11.689 10.2596 11.5672C10.8343 11.301 11.8131 10.7663 12.2546 10.0435C12.8237 9.11156 12.931 7.42806 12.9484 7.04251C12.9509 6.98846 12.9495 6.9344 12.9568 6.88104C13.0512 6.2129 14.3646 6.99325 14.8681 7.8184C15.1417 8.26588 15.1765 8.85396 15.148 9.3134C15.117 9.80467 14.9702 10.2792 14.8263 10.7506L14.5197 11.7554H18.303C18.4107 11.7553 18.5169 11.7798 18.6133 11.8269C18.7098 11.874 18.7938 11.9423 18.8587 12.0266C18.9237 12.1109 18.9679 12.2088 18.9879 12.3127C19.0079 12.4166 19.0031 12.5236 18.9738 12.6253L17.1025 19.1308C17.0612 19.2743 16.9733 19.4006 16.8522 19.4905C16.731 19.5804 16.5833 19.629 16.4314 19.6289H10.5123C10.3274 19.6289 10.1502 19.5568 10.0195 19.4285C9.88876 19.3002 9.81533 19.1262 9.81533 18.9447V12.2309Z" stroke="currentColor" stroke-width="1.5" stroke-linecap="round" stroke-linejoin="round"/>
</svg>
