<svg xmlns="http://www.w3.org/2000/svg" width="16" height="16" viewBox="0 0 16 16" fill="none">
  <g clip-path="url(#clip0_1802_25869)">
    <rect width="16" height="16" fill="white"/>
    <path d="M6.8475 1.66201L6.84746 1.66208L5.09501 4.6704L1.69163 5.40776L1.69163 5.40776C1.46368 5.45715 1.25268 5.56546 1.07969 5.72189C0.906694 5.87832 0.777758 6.07739 0.705754 6.29923C0.633751 6.52107 0.621198 6.75792 0.669349 6.98613C0.7175 7.21434 0.824671 7.42592 0.980161 7.59976L3.29983 10.1953L2.94873 13.6592C2.94872 13.6593 2.94872 13.6593 2.94872 13.6593C2.92517 13.8914 2.9629 14.1255 3.05813 14.3384C3.15338 14.5513 3.30282 14.7355 3.49152 14.8726C3.68023 15.0097 3.9016 15.0949 4.13353 15.1197C4.36546 15.1445 4.59984 15.108 4.81326 15.0139L7.9995 13.6095L11.1857 15.0139C11.3992 15.108 11.6335 15.1445 11.8655 15.1197C12.0974 15.0949 12.3188 15.0097 12.5075 14.8726C12.6962 14.7355 12.8456 14.5513 12.9409 14.3384C13.0361 14.1255 13.0738 13.8914 13.0503 13.6593C13.0503 13.6593 13.0503 13.6593 13.0503 13.6592L12.6992 10.1952L15.019 7.5989L15.0191 7.59876C15.1744 7.42491 15.2813 7.21341 15.3293 6.98534C15.3773 6.75727 15.3647 6.52061 15.2927 6.29895C15.2207 6.07728 15.0919 5.87835 14.919 5.72199C14.7462 5.56564 14.5354 5.45732 14.3077 5.40783L14.3074 5.40776L10.904 4.6704L9.15154 1.66208L9.1515 1.66201C9.03412 1.46058 8.86597 1.29345 8.66384 1.17729C8.4617 1.06113 8.23264 1 7.9995 1C7.76637 1 7.5373 1.06113 7.33517 1.17729C7.13303 1.29345 6.96488 1.46058 6.8475 1.66201Z" fill="#CACDD2" stroke="#CACDD2"/>
  </g>
  <defs>
    <clipPath id="clip0_1802_25869">
      <rect width="16" height="16" fill="white"/>
    </clipPath>
  </defs>
</svg>