<svg width="12" height="15" viewBox="0 0 12 15" fill="none" xmlns="http://www.w3.org/2000/svg">
<path d="M1.5 15C1.0875 15 0.7345 14.8602 0.441 14.5807C0.1475 14.3012 0.0005 13.9648 0 13.5714V6.42857C0 6.03571 0.147 5.69952 0.441 5.42C0.735 5.14048 1.088 5.00048 1.5 5H2.25V3.57143C2.25 2.58333 2.61575 1.74119 3.34725 1.045C4.07875 0.34881 4.963 0.00047619 6 0C7.0375 0 7.922 0.348333 8.6535 1.045C9.385 1.74167 9.7505 2.58381 9.75 3.57143V5H10.5C10.9125 5 11.2657 5.14 11.5597 5.42C11.8537 5.7 12.0005 6.03619 12 6.42857V13.5714C12 13.9643 11.8532 14.3007 11.5597 14.5807C11.2662 14.8607 10.913 15.0005 10.5 15H1.5ZM6 11.4286C6.4125 11.4286 6.76575 11.2888 7.05975 11.0093C7.35375 10.7298 7.5005 10.3933 7.5 10C7.5 9.60714 7.35325 9.27095 7.05975 8.99143C6.76625 8.7119 6.413 8.5719 6 8.57143C5.5875 8.57143 5.2345 8.71143 4.941 8.99143C4.6475 9.27143 4.5005 9.60762 4.5 10C4.5 10.3929 4.647 10.7293 4.941 11.0093C5.235 11.2893 5.588 11.429 6 11.4286ZM3.75 5H8.25V3.57143C8.25 2.97619 8.03125 2.47024 7.59375 2.05357C7.15625 1.6369 6.625 1.42857 6 1.42857C5.375 1.42857 4.84375 1.6369 4.40625 2.05357C3.96875 2.47024 3.75 2.97619 3.75 3.57143V5Z" fill="#1B1D1F"/>
</svg>
