<svg width="24" height="24" viewBox="0 0 24 24" fill="none" xmlns="http://www.w3.org/2000/svg">
<g id="arrow">
<path id="Vector" d="M8.21767 5.34901C8.149 5.27268 8.09531 5.18288 8.05968 5.08476C8.02404 4.98663 8.00715 4.8821 8.00998 4.77712C8.01281 4.67214 8.03529 4.56877 8.07615 4.47292C8.11701 4.37706 8.17545 4.2906 8.24812 4.21847C8.32079 4.14634 8.40628 4.08995 8.4997 4.05252C8.59312 4.01509 8.69264 3.99735 8.79259 4.00032C8.89254 4.00329 8.99095 4.02691 9.08221 4.06983C9.17346 4.11274 9.25578 4.17412 9.32445 4.25045L15.7946 11.4462C15.9282 11.5947 16.0027 11.7912 16.0027 11.9955C16.0027 12.1998 15.9282 12.3963 15.7946 12.5448L9.32445 19.7414C9.25623 19.8194 9.17393 19.8824 9.08234 19.9267C8.99075 19.971 8.89169 19.9957 8.79091 19.9995C8.69013 20.0033 8.58965 19.9859 8.49529 19.9486C8.40094 19.9112 8.31459 19.8545 8.24127 19.7818C8.16795 19.7091 8.10912 19.6218 8.06819 19.525C8.02727 19.4282 8.00506 19.3238 8.00287 19.2179C8.00067 19.112 8.01853 19.0067 8.0554 18.9081C8.09228 18.8095 8.14744 18.7196 8.21767 18.6436L14.1946 11.9955L8.21767 5.34901Z" fill="#1B1D1F"/>
</g>
</svg>
