<svg width="8" height="16" viewBox="0 0 8 16" fill="none" xmlns="http://www.w3.org/2000/svg">
<path d="M0.214986 1.34901C0.146313 1.27268 0.0926256 1.18288 0.0569897 1.08476C0.0213542 0.986633 0.00446749 0.882096 0.00729465 0.777116C0.0101218 0.672136 0.0326076 0.568769 0.0734677 0.472916C0.114328 0.377064 0.172762 0.290603 0.245434 0.218471C0.318106 0.146339 0.403594 0.0899478 0.497014 0.0525173C0.590435 0.0150869 0.689959 -0.00264992 0.789906 0.000319814C0.889853 0.00328955 0.988264 0.0269075 1.07952 0.0698253C1.17078 0.112743 1.25309 0.17412 1.32177 0.250452L7.79193 7.44623C7.92555 7.59468 8 7.79122 8 7.99551C8 8.1998 7.92555 8.39634 7.79193 8.54478L1.32177 15.7414C1.25355 15.8194 1.17125 15.8824 1.07966 15.9267C0.988064 15.971 0.889002 15.9957 0.788224 15.9995C0.687446 16.0033 0.58696 15.9859 0.492605 15.9486C0.39825 15.9112 0.311904 15.8545 0.238585 15.7818C0.165267 15.7091 0.106435 15.6218 0.0655088 15.525C0.0245819 15.4282 0.00237608 15.3238 0.000180721 15.2179C-0.00201511 15.112 0.0158429 15.0067 0.0527186 14.9081C0.0895939 14.8095 0.144751 14.7196 0.214986 14.6436L6.1919 7.99551L0.214986 1.34901Z" fill="#1B1D1F"/>
</svg>
