<svg width="74" height="74" viewBox="0 0 74 74" fill="none" xmlns="http://www.w3.org/2000/svg">
<g id="bi:people-fill">
<path id="Vector" d="M32.375 64.75C32.375 64.75 27.75 64.75 27.75 60.125C27.75 55.5 32.375 41.625 50.875 41.625C69.375 41.625 74 55.5 74 60.125C74 64.75 69.375 64.75 69.375 64.75H32.375ZM50.875 37C54.5549 37 58.084 35.5382 60.6861 32.9361C63.2882 30.334 64.75 26.8049 64.75 23.125C64.75 19.4451 63.2882 15.916 60.6861 13.3139C58.084 10.7118 54.5549 9.25 50.875 9.25C47.1951 9.25 43.666 10.7118 41.0639 13.3139C38.4618 15.916 37 19.4451 37 23.125C37 26.8049 38.4618 30.334 41.0639 32.9361C43.666 35.5382 47.1951 37 50.875 37ZM24.124 64.75C23.4387 63.306 23.0968 61.7231 23.125 60.125C23.125 53.8581 26.27 47.4062 32.079 42.92C29.18 42.0248 26.1589 41.5878 23.125 41.625C4.625 41.625 0 55.5 0 60.125C0 64.75 4.625 64.75 4.625 64.75H24.124ZM20.8125 37C23.8791 37 26.82 35.7818 28.9884 33.6134C31.1568 31.445 32.375 28.5041 32.375 25.4375C32.375 22.3709 31.1568 19.43 28.9884 17.2616C26.82 15.0932 23.8791 13.875 20.8125 13.875C17.7459 13.875 14.805 15.0932 12.6366 17.2616C10.4682 19.43 9.25 22.3709 9.25 25.4375C9.25 28.5041 10.4682 31.445 12.6366 33.6134C14.805 35.7818 17.7459 37 20.8125 37Z" fill="#5B6BBE"/>
</g>
</svg>
