<svg width="25" height="24" viewBox="0 0 25 24" fill="none" xmlns="http://www.w3.org/2000/svg">
<g id="plus">
<path id="Vector" d="M18.5 13H13.5V18C13.5 18.2652 13.3946 18.5196 13.2071 18.7071C13.0196 18.8946 12.7652 19 12.5 19C12.2348 19 11.9804 18.8946 11.7929 18.7071C11.6054 18.5196 11.5 18.2652 11.5 18V13H6.5C6.23478 13 5.98043 12.8946 5.79289 12.7071C5.60536 12.5196 5.5 12.2652 5.5 12C5.5 11.7348 5.60536 11.4804 5.79289 11.2929C5.98043 11.1054 6.23478 11 6.5 11H11.5V6C11.5 5.73478 11.6054 5.48043 11.7929 5.29289C11.9804 5.10536 12.2348 5 12.5 5C12.7652 5 13.0196 5.10536 13.2071 5.29289C13.3946 5.48043 13.5 5.73478 13.5 6V11H18.5C18.7652 11 19.0196 11.1054 19.2071 11.2929C19.3946 11.4804 19.5 11.7348 19.5 12C19.5 12.2652 19.3946 12.5196 19.2071 12.7071C19.0196 12.8946 18.7652 13 18.5 13Z" fill="black"/>
</g>
</svg>
