<svg width="24" height="24" viewBox="0 0 24 24" fill="none" xmlns="http://www.w3.org/2000/svg">
<g id="arrow">
<path id="Vector" d="M15.7877 5.34901C15.8564 5.27268 15.9101 5.18288 15.9457 5.08476C15.9813 4.98663 15.9982 4.8821 15.9954 4.77712C15.9926 4.67214 15.9701 4.56877 15.9292 4.47292C15.8884 4.37706 15.8299 4.2906 15.7573 4.21847C15.6846 4.14634 15.5991 4.08995 15.5057 4.05252C15.4123 4.01509 15.3127 3.99735 15.2128 4.00032C15.1128 4.00329 15.0144 4.02691 14.9232 4.06983C14.8319 4.11274 14.7496 4.17412 14.6809 4.25045L8.21075 11.4462C8.07714 11.5947 8.00269 11.7912 8.00269 11.9955C8.00269 12.1998 8.07714 12.3963 8.21075 12.5448L14.6809 19.7414C14.7491 19.8194 14.8314 19.8824 14.923 19.9267C15.0146 19.971 15.1137 19.9957 15.2145 19.9995C15.3152 20.0033 15.4157 19.9859 15.5101 19.9486C15.6044 19.9112 15.6908 19.8545 15.7641 19.7818C15.8374 19.7091 15.8963 19.6218 15.9372 19.525C15.9781 19.4282 16.0003 19.3238 16.0025 19.2179C16.0047 19.112 15.9868 19.0067 15.95 18.9081C15.9131 18.8095 15.8579 18.7196 15.7877 18.6436L9.81079 11.9955L15.7877 5.34901Z" fill="#1B1D1F"/>
</g>
</svg>
