<svg width="32" height="32" viewBox="0 0 32 32" fill="#D9D9D9" xmlns="http://www.w3.org/2000/svg">
<path fill-rule="evenodd" clip-rule="evenodd" d="M21.4967 19.9022C22.9039 18.0872 23.5671 15.8042 23.3514 13.5174C23.1356 11.2307 22.0572 9.11206 20.3354 7.59254C18.6136 6.07303 16.3779 5.26678 14.083 5.33782C11.7881 5.40886 9.60648 6.35186 7.98192 7.97496C6.35595 9.59919 5.41024 11.7825 5.33753 14.0801C5.26482 16.3776 6.07058 18.6165 7.59059 20.3403C9.11061 22.0642 11.2305 23.1434 13.5182 23.358C15.806 23.5725 18.0894 22.9063 19.9033 21.4951L19.9518 21.5459L24.7388 26.336C24.8437 26.4409 24.9681 26.5241 25.1051 26.5808C25.2421 26.6376 25.3889 26.6668 25.5372 26.6668C25.6855 26.6668 25.8323 26.6376 25.9693 26.5808C26.1063 26.5241 26.2308 26.4409 26.3356 26.336C26.4405 26.2311 26.5236 26.1066 26.5804 25.9695C26.6371 25.8325 26.6663 25.6856 26.6663 25.5373C26.6663 25.3889 26.6371 25.242 26.5804 25.105C26.5236 24.968 26.4405 24.8434 26.3356 24.7385L21.5475 19.9496C21.531 19.9333 21.514 19.9175 21.4967 19.9022ZM19.1539 9.57241C19.7911 10.1995 20.2978 10.9466 20.6449 11.7706C20.992 12.5946 21.1726 13.4792 21.1762 14.3733C21.1798 15.2675 21.0065 16.1535 20.6661 16.9803C20.3257 17.8071 19.8251 18.5583 19.1931 19.1906C18.5611 19.8229 17.8102 20.3237 16.9837 20.6642C16.1572 21.0047 15.2716 21.1781 14.3778 21.1745C13.484 21.1708 12.5997 20.9902 11.776 20.643C10.9524 20.2958 10.2056 19.7888 9.57873 19.1514C8.32602 17.8776 7.62719 16.1603 7.63446 14.3733C7.64173 12.5864 8.35452 10.8748 9.61756 9.61126C10.8806 8.34771 12.5916 7.63464 14.3778 7.62736C16.1639 7.62009 17.8807 8.3192 19.1539 9.57241Z" fill="#19297C"/>
</svg>
