<svg width="16" height="16" viewBox="0 0 16 16" fill="none" xmlns="http://www.w3.org/2000/svg">
<g id="mingcute:star-fill" clip-path="url(#clip0_2213_16141)">
<g id="Group">
<path id="Vector" d="M6.84848 1.66006L6.84844 1.66013L5.09599 4.66845L1.69261 5.40581L1.6926 5.40581C1.46466 5.45519 1.25366 5.56351 1.08066 5.71994C0.90767 5.87637 0.778735 6.07544 0.706731 6.29728C0.634727 6.51912 0.622175 6.75597 0.670326 6.98418C0.718477 7.21238 0.825647 7.42397 0.981138 7.59781L3.3008 10.1933L2.9497 13.6573C2.9497 13.6573 2.9497 13.6574 2.94969 13.6574C2.92615 13.8894 2.96388 14.1236 3.05911 14.3365C3.15436 14.5494 3.30379 14.7336 3.4925 14.8707C3.68121 15.0078 3.90258 15.093 4.13451 15.1178C4.36644 15.1426 4.60082 15.1061 4.81424 15.012L8.00048 13.6076L11.1867 15.012C11.4001 15.1061 11.6345 15.1426 11.8665 15.1178C12.0984 15.093 12.3198 15.0078 12.5085 14.8707C12.6972 14.7336 12.8466 14.5494 12.9418 14.3365C13.0371 14.1236 13.0748 13.8894 13.0513 13.6574C13.0513 13.6574 13.0513 13.6573 13.0513 13.6573L12.7002 10.1933L15.02 7.59695L15.0201 7.59681C15.1753 7.42296 15.2823 7.21146 15.3303 6.98339C15.3783 6.75532 15.3656 6.51866 15.2937 6.29699C15.2217 6.07532 15.0929 5.8764 14.92 5.72004C14.7472 5.56369 14.5364 5.45536 14.3087 5.40587L14.3083 5.40581L10.905 4.66845L9.15252 1.66013L9.15248 1.66006C9.0351 1.45863 8.86695 1.2915 8.66481 1.17534C8.46268 1.05918 8.23361 0.998047 8.00048 0.998047C7.76734 0.998047 7.53828 1.05918 7.33614 1.17534C7.13401 1.2915 6.96586 1.45863 6.84848 1.66006Z" fill="#FFAA29" stroke="#26282B"/>
</g>
</g>
<defs>
<clipPath id="clip0_2213_16141">
<rect width="16" height="16" fill="white"/>
</clipPath>
</defs>
</svg>
