<svg width="74" height="74" viewBox="0 0 74 74" fill="none" xmlns="http://www.w3.org/2000/svg">
<g id="fluent:clock-48-filled">
<path id="Vector" d="M36.9987 7.71094C53.1754 7.71094 66.2904 20.8259 66.2904 37.0026C66.2904 53.1793 53.1754 66.2943 36.9987 66.2943C20.822 66.2943 7.70703 53.1793 7.70703 37.0026C7.70703 20.8259 20.822 7.71094 36.9987 7.71094ZM35.0716 18.5026C34.0079 18.5026 33.1445 19.3659 33.1445 20.4297V38.9297C33.1445 39.9934 34.0079 40.8568 35.0716 40.8568H47.4049C47.916 40.8568 48.4062 40.6537 48.7676 40.2923C49.129 39.9309 49.332 39.4408 49.332 38.9297C49.332 38.4186 49.129 37.9284 48.7676 37.567C48.4062 37.2056 47.916 37.0026 47.4049 37.0026H36.9987V20.4297C36.9987 19.3659 36.1354 18.5026 35.0716 18.5026Z" fill="#5B6BBE"/>
</g>
</svg>
