<svg width="16" height="14" viewBox="0 0 16 14" fill="none" xmlns="http://www.w3.org/2000/svg">
<path d="M15.7714 11.4862L9.52528 0.855438C9.36919 0.594988 9.14637 0.379036 8.87889 0.228986C8.61141 0.0789368 8.30856 0 8.00036 0C7.69216 0 7.38931 0.0789368 7.12182 0.228986C6.85434 0.379036 6.63152 0.594988 6.47543 0.855438L0.229326 11.4862C0.079145 11.7381 0 12.0247 0 12.3164C0 12.6082 0.079145 12.8947 0.229326 13.1466C0.383411 13.4086 0.605857 13.6258 0.873837 13.7757C1.14182 13.9257 1.44568 14.003 1.75425 13.9999H14.2465C14.5548 14.0028 14.8584 13.9253 15.1261 13.7754C15.3938 13.6254 15.616 13.4084 15.77 13.1466C15.9204 12.8948 15.9997 12.6084 16 12.3166C16.0002 12.0249 15.9214 11.7383 15.7714 11.4862ZM7.42896 5.59999C7.42896 5.45147 7.48916 5.30903 7.59632 5.20401C7.70347 5.099 7.84881 5.04 8.00036 5.04C8.1519 5.04 8.29724 5.099 8.4044 5.20401C8.51155 5.30903 8.57176 5.45147 8.57176 5.59999V8.39996C8.57176 8.54848 8.51155 8.69092 8.4044 8.79594C8.29724 8.90096 8.1519 8.95996 8.00036 8.95996C7.84881 8.95996 7.70347 8.90096 7.59632 8.79594C7.48916 8.69092 7.42896 8.54848 7.42896 8.39996V5.59999ZM8.00036 11.7599C7.83084 11.7599 7.66513 11.7107 7.52418 11.6184C7.38323 11.5261 7.27337 11.3949 7.2085 11.2414C7.14363 11.0879 7.12665 10.919 7.15973 10.7561C7.1928 10.5931 7.27443 10.4434 7.3943 10.326C7.51416 10.2085 7.66688 10.1285 7.83314 10.0961C7.9994 10.0637 8.17174 10.0803 8.32835 10.1439C8.48497 10.2075 8.61883 10.3151 8.71301 10.4533C8.80719 10.5914 8.85746 10.7538 8.85746 10.9199C8.85746 11.1427 8.76715 11.3564 8.60642 11.5139C8.44568 11.6714 8.22767 11.7599 8.00036 11.7599Z" fill="#9FA4A9"/>
</svg>
